<?xml version="1.0" encoding="utf-8"?>
<svg version="1.1" xmlns:xlink="http://www.w3.org/1999/xlink" width="25px" height="25px" xmlns="http://www.w3.org/2000/svg">
  <g transform="matrix(1 0 0 1 -1331 -154 )">
    <path d="M 1343.5 154.5  C 1350.22 154.5  1355.5 159.78  1355.5 166.5  C 1355.5 173.22  1350.22 178.5  1343.5 178.5  C 1336.78 178.5  1331.5 173.22  1331.5 166.5  C 1331.5 159.78  1336.78 154.5  1343.5 154.5  Z " fill-rule="nonzero" fill="#f46a6a" stroke="none" fill-opacity="0.96078431372549" />
    <path d="M 1343.5 154.5  C 1350.22 154.5  1355.5 159.78  1355.5 166.5  C 1355.5 173.22  1350.22 178.5  1343.5 178.5  C 1336.78 178.5  1331.5 173.22  1331.5 166.5  C 1331.5 159.78  1336.78 154.5  1343.5 154.5  Z " stroke-width="1" stroke="#797979" fill="none" stroke-opacity="0.0117647058823529" />
  </g>
</svg>