<?xml version="1.0" encoding="utf-8"?>
<svg version="1.1" xmlns:xlink="http://www.w3.org/1999/xlink" width="25px" height="25px" xmlns="http://www.w3.org/2000/svg">
  <g transform="matrix(1 0 0 1 -828 -419 )">
    <path d="M 840.5 419.5  C 847.22 419.5  852.5 424.78  852.5 431.5  C 852.5 438.22  847.22 443.5  840.5 443.5  C 833.78 443.5  828.5 438.22  828.5 431.5  C 828.5 424.78  833.78 419.5  840.5 419.5  Z " fill-rule="nonzero" fill="#50a5f1" stroke="none" />
    <path d="M 840.5 419.5  C 847.22 419.5  852.5 424.78  852.5 431.5  C 852.5 438.22  847.22 443.5  840.5 443.5  C 833.78 443.5  828.5 438.22  828.5 431.5  C 828.5 424.78  833.78 419.5  840.5 419.5  Z " stroke-width="1" stroke="#797979" fill="none" stroke-opacity="0.0117647058823529" />
  </g>
</svg>