<?xml version="1.0" encoding="utf-8"?>
<svg version="1.1" xmlns:xlink="http://www.w3.org/1999/xlink" width="25px" height="25px" xmlns="http://www.w3.org/2000/svg">
  <g transform="matrix(1 0 0 1 -1834 -154 )">
    <path d="M 1846.5 154.5  C 1853.22 154.5  1858.5 159.78  1858.5 166.5  C 1858.5 173.22  1853.22 178.5  1846.5 178.5  C 1839.78 178.5  1834.5 173.22  1834.5 166.5  C 1834.5 159.78  1839.78 154.5  1846.5 154.5  Z " fill-rule="nonzero" fill="#34c38f" stroke="none" />
    <path d="M 1846.5 154.5  C 1853.22 154.5  1858.5 159.78  1858.5 166.5  C 1858.5 173.22  1853.22 178.5  1846.5 178.5  C 1839.78 178.5  1834.5 173.22  1834.5 166.5  C 1834.5 159.78  1839.78 154.5  1846.5 154.5  Z " stroke-width="1" stroke="#797979" fill="none" stroke-opacity="0.0117647058823529" />
  </g>
</svg>